<?xml version="1.0" encoding="utf-8"?>
<!-- Generator: Adobe Illustrator 24.1.0, SVG Export Plug-In . SVG Version: 6.00 Build 0)  -->
<svg version="1.1" id="Layer_1" xmlns="http://www.w3.org/2000/svg" xmlns:xlink="http://www.w3.org/1999/xlink" x="0px" y="0px"
	 viewBox="0 0 940.99 478.99" style="enable-background:new 0 0 940.99 478.99;" xml:space="preserve">
<style type="text/css">
	.st0{fill:#FEFEFE;}
	.st1{fill:#353534;}
	.st2{fill:#363635;}
	.st3{fill:#363736;}
	.st4{fill:#373736;}
	.st5{fill:#373635;}
	.st6{fill:#373737;}
	.st7{fill:#353735;}
	.st8{fill:#373836;}
	.st9{fill:#373837;}
	.st10{fill:#383738;}
	.st11{fill:#383938;}
	.st12{fill:#373A38;}
	.st13{fill:#3D413F;}
	.st14{fill:#3B3C3B;}
	.st15{fill:#3C3B3C;}
	.st16{fill:#4A4D4C;}
	.st17{fill:#FCFDFD;}
	.st18{fill:#FBFCFC;}
	.st19{fill:#F7FDFD;}
	.st20{fill:#FCFCFC;}
	.st21{fill:#FDFDFD;}
	.st22{fill:#EFF4F4;}
	.st23{fill:#DFE5E5;}
	.st24{fill:#E4EBEA;}
	.st25{fill:#F3F6F6;}
</style>
<g>
	<g>
		<path class="st0" d="M470,478.9c-155.14,0-310.27-0.02-465.41,0.09c-3.75,0-4.6-0.84-4.59-4.59C0.11,317.79,0.11,161.19,0,4.58
			c0-3.75,0.84-4.59,4.59-4.59c310.6,0.1,621.21,0.1,931.81,0c3.75,0,4.6,0.84,4.59,4.59c-0.11,156.61-0.11,313.21,0,469.82
			c0,3.75-0.84,4.59-4.59,4.59C780.94,478.88,625.47,478.9,470,478.9z"/>
		<path class="st1" d="M245.83,258.85c-43.8,0-87.61,0-131.41,0c-9.12,0-11.17-2.02-11.18-11.07c-0.01-7.33-0.02-14.65,0-21.98
			c0.05-15.8,7.6-27.06,22.16-32.66c2.35-0.9,4.07-2.15,5.21-4.28c12.2-22.86,24.52-45.67,36.51-68.65
			c3.38-6.48,7.97-9.77,15.38-9.53c7.99,0.27,15.99-0.04,23.98,0.13c3.21,0.07,4.53-0.99,4.44-4.28c-0.13-4.82,0.14-9.65,0.08-14.47
			c-0.03-2.76,1.09-3.85,3.86-3.84c19.99,0.07,39.97,0.07,59.96,0.03c3.15-0.01,4.04,1.7,4.04,4.4c0,4.66,0.08,9.33-0.01,13.99
			c-0.06,2.96,1.15,4.18,4.16,4.13c7.83-0.12,15.66,0.1,23.48-0.08c6.39-0.14,10.61,2.76,13.71,8.17
			c13.48,23.49,27.11,46.91,40.6,70.39c1.17,2.04,2.62,3.08,4.86,3.79c12.8,4.05,21.86,15.93,22.31,29.49
			c0.29,8.82,0.14,17.65,0.1,26.48c-0.04,7.69-2.22,9.83-9.83,9.84C334.11,258.86,289.97,258.86,245.83,258.85z"/>
		<path class="st1" d="M245.74,263.55c45.81,0,91.61,0.04,137.42-0.08c3.95-0.01,5.6,0.7,5.56,5.16
			c-0.23,24.48-0.23,48.96-0.05,73.44c0.03,4.06-1.32,5.03-5.12,5.02c-92.12-0.08-184.23-0.09-276.35,0.01
			c-3.69,0-4.44-1.36-4.42-4.65c0.09-24.65,0.15-49.3-0.03-73.95c-0.03-4.37,1.65-5.16,5.57-5.15c45.81,0.12,91.61,0.07,137.42,0.07
			C245.74,263.48,245.74,263.52,245.74,263.55z"/>
		<path class="st2" d="M499.45,208.42c-9.74-0.01-16.13-3.35-18.45-9.83c-0.62-1.72-2.16-4.66,0.13-5.09
			c2.53-0.47,6.17-2.33,8.33,1.65c3.08,5.68,7.86,7.68,13.67,5.96c2.62-0.78,5.13-1.8,5.37-5.09c0.25-3.34-2.09-4.74-4.68-5.6
			c-4.24-1.41-8.62-2.38-12.84-3.83c-6.66-2.29-9.8-6.34-9.53-11.8c0.29-5.88,4.78-10.53,11.55-11.89c5.49-1.1,10.89-1,16.07,1.42
			c2.16,1.01,4.06,2.4,5.24,4.45s3.14,4.36,0.97,6.7c-1.6,1.73-7.35,0.06-8.76-2.23c-2.36-3.82-9.05-5.38-12.9-2.92
			c-1.58,1.01-2.79,2.39-2.69,4.48c0.11,2.16,1.6,3.36,3.36,3.91c5.05,1.6,10.27,2.69,15.24,4.5c4.77,1.73,8.14,4.83,8.31,10.58
			c0.18,6.05-2.38,10.18-7.7,12.72C506.78,208.11,503.15,208.5,499.45,208.42z"/>
		<path class="st3" d="M548.09,267.26c0,3.32-0.33,6.67,0.07,9.94c0.71,5.8-1.17,7.99-6.42,5.66c-2.89-1.29-4.77-0.76-7.26,0.08
			c-3.36,1.13-6.86,1.12-10.34,0.34c-4.65-1.04-6.6-4.34-6.72-8.68c-0.12-4.3,2.2-7.29,6.32-8.49c2.85-0.83,5.82-1.26,8.77-1.72
			c2.78-0.43,5.81-0.44,6.66-3.91c0.45-1.83-0.56-3.26-2.23-4.02c-3.16-1.43-6.5-1.42-8.59,1.45c-1.76,2.43-3.7,2.84-6.31,2.79
			c-3.9-0.08-3.62-2.16-2.21-4.55c1.48-2.52,3.84-4.02,6.68-4.83c4.57-1.3,9.13-1.48,13.77-0.34c5.86,1.44,7.49,3.36,7.57,9.29
			c0.03,2.33,0.01,4.65,0.01,6.98C547.94,267.26,548.01,267.26,548.09,267.26z"/>
		<path class="st2" d="M832.52,191.6c0,3.83,0.04,7.65-0.02,11.48c-0.02,1.58,0.61,3.93-1.4,4.29c-2.03,0.36-4.79,1.55-6.34-0.89
			c-1.41-2.24-2.34-1.23-3.92-0.31c-9.84,5.79-18.55,0.95-18.76-10.4c-0.11-5.65,0.09-11.32-0.08-16.97
			c-0.09-3.05,1.38-3.66,3.98-3.53c2.37,0.12,4.75-0.27,4.62,3.42c-0.17,5.15-0.12,10.32,0.03,15.47c0.11,3.82,0.82,7.46,5.74,7.76
			c4.34,0.27,7.29-2.35,7.65-7.36c0.37-5.13,0.34-10.31,0.17-15.46c-0.11-3.27,1.42-3.83,4.23-3.86c2.88-0.03,4.33,0.66,4.16,3.89
			C832.36,183.27,832.52,187.44,832.52,191.6z"/>
		<path class="st3" d="M733.52,218.95c-2.45,0.01-4.49,0.28-4.7-3.08c-0.19-3.07,1.04-3.45,3.66-3.73c4.47-0.47,5.88-3.35,4.15-8.02
			c-2.94-7.92-6.12-15.75-9.02-23.68c-0.55-1.52-3.31-3.96-0.07-4.8c2.6-0.68,6.5-1.96,8.03,2.43c1.69,4.84,3.31,9.7,5.05,14.52
			c0.4,1.11,0.18,3.01,2.12,2.77c1.35-0.17,1.47-1.67,1.82-2.74c1.52-4.55,2.95-9.14,4.51-13.68c1.11-3.24,5.49-4.86,8.36-3.31
			c1.58,0.85,0.86,1.78,0.44,2.86c-4.23,10.96-8.53,21.9-12.59,32.93C743.15,217.18,738.96,219.15,733.52,218.95z"/>
		<path class="st3" d="M543.04,193.41c-2.99,0-5.99,0.04-8.98-0.01c-3.8-0.07-3.61,2.1-2.51,4.57c1.92,4.29,8.33,5.81,12.41,2.58
			c2.88-2.28,7.08-4.09,8.66-1.63c1.67,2.62-2.28,5.7-4.99,7.4c-7.56,4.73-19.74,1.49-23.62-6.02c-4.72-9.14-1.39-20.77,7.75-24.03
			c11.91-4.25,20.61,0.71,23,13.48c0.46,2.44-0.54,3.76-3.25,3.63c-2.82-0.13-5.65-0.03-8.48-0.03
			C543.04,193.37,543.04,193.39,543.04,193.41z"/>
		<path class="st4" d="M693.16,193.4c-2.66,0-5.33,0.07-7.99-0.02c-4.13-0.14-3.92,2.2-2.67,4.82c1.98,4.16,8.74,5.55,12.51,2.24
			c2.74-2.41,6.87-3.78,8.31-1.65c1.93,2.84-1.92,5.46-4.41,7.17c-6.01,4.14-16.86,2.77-21.67-2.45
			c-5.45-5.92-5.88-16.09-0.96-22.59c4.58-6.05,14.31-8.01,21.22-4.2c5.32,2.93,7.28,7.94,8.06,13.59c0.29,2.13-0.86,3.05-2.92,3.04
			c-3.16-0.02-6.33,0-9.49,0C693.16,193.36,693.16,193.38,693.16,193.4z"/>
		<path class="st5" d="M778.89,174.96c10.39,0.1,16.66,6.51,16.57,16.95c-0.08,10.04-7,16.65-17.23,16.46
			c-10.3-0.19-16.67-6.79-16.5-17.12C761.89,180.83,768.2,174.85,778.89,174.96z"/>
		<path class="st4" d="M689.8,267.46c0,3.83,0.1,7.66-0.05,11.49c-0.06,1.48,0.9,3.91-1.49,4.12c-2.09,0.18-4.97,1.41-6.35-1.07
			c-1.29-2.31-2.16-1.11-3.46-0.37c-10.42,5.94-18.86,1.18-18.89-10.61c-0.01-5.5,0.13-11-0.07-16.49c-0.12-3.26,1.71-3.37,4.1-3.37
			c2.33,0,4.4-0.07,4.34,3.19c-0.09,4.83-0.1,9.66-0.01,14.49c0.12,6.24,2.07,8.74,6.53,8.63c4.49-0.11,6.76-2.86,6.89-8.57
			c0.11-4.83,0.23-9.67,0.05-14.49c-0.12-3.3,1.74-3.32,4.13-3.27c2.34,0.04,4.34,0.05,4.22,3.32c-0.16,4.33-0.04,8.66-0.04,12.99
			C689.75,267.46,689.77,267.46,689.8,267.46z"/>
		<path class="st6" d="M711.2,283.98c-4.8-0.22-9.45-0.71-12.81-4.58c-1.34-1.54-3.23-3.3-1.95-5.7c0.69-1.3,7.35-0.53,8.16,1.1
			c2.04,4.07,5.52,3.79,9.02,3.34c1.93-0.24,3.43-1.47,3.67-3.55c0.26-2.26-1.34-3.27-3.2-3.82c-3.8-1.13-7.68-2.02-11.44-3.26
			c-3.36-1.1-5.84-3.17-5.85-7.14c-0.01-4.07,1.72-7.01,5.59-8.54c6.22-2.46,12.39-2.38,18.3,0.81c2.57,1.38,5.23,4.34,3.61,6.62
			c-1.11,1.56-5.55,1.8-7.96-1.14c-0.7-0.85-1.74-1.7-2.77-1.93c-2.88-0.66-6.63-1.72-7.67,2.04s2.7,4.19,5.42,4.87
			c2.73,0.67,5.51,1.21,8.17,2.08c4.16,1.37,6.74,3.9,6.44,8.8c-0.31,4.92-3.11,7.57-7.39,8.87
			C716.21,283.57,713.66,283.63,711.2,283.98z"/>
		<path class="st7" d="M555.81,267.3c0-3.99-0.05-7.98,0.02-11.96c0.02-1.4-0.57-3.31,1.38-3.81c1.88-0.48,4.46-1.17,5.64,0.46
			c1.68,2.3,2.62,1.8,4.65,0.56c9.65-5.86,18.53-0.92,18.74,10.32c0.11,5.65-0.16,11.31,0.11,16.94c0.16,3.24-1.43,3.48-3.91,3.39
			c-2.37-0.09-4.62,0.33-4.57-3.37c0.07-5.78,0.49-11.55-0.46-17.36c-0.62-3.84-2.31-5.73-6.09-5.69c-3.96,0.04-6.35,2.33-6.63,6.06
			c-0.41,5.45-0.48,10.96-0.24,16.43c0.16,3.5-1.27,4.03-4.31,3.99c-2.95-0.04-4.71-0.35-4.42-3.99
			C556.05,275.3,555.81,271.29,555.81,267.3z"/>
		<path class="st8" d="M497.57,283.74c-7.91,0.02-13.61-3.73-15.85-10.43c-2.43-7.3,0.11-15.88,5.99-20.21
			c5.18-3.82,14.37-3.86,19.8-0.02c1.08,0.76,2.27,1.6,2.9,2.7c0.99,1.72,3.77,3.93,1.64,5.48c-1.99,1.44-5.84,1.9-7.7-0.72
			c-2.53-3.58-5.72-4.85-9.43-3.44c-3.72,1.41-5.09,5.02-5.36,8.87c-0.3,4.33,0.42,8.4,4.37,10.96c3.24,2.09,7.47,0.74,9.93-2.81
			c0.8-1.16,0.97-3.1,2.93-2.94c1.91,0.15,4.3-0.99,5.63,0.81c1.3,1.76-0.51,3.47-1.37,4.97
			C508.1,282.14,503.28,283.87,497.57,283.74z"/>
		<path class="st3" d="M653.38,174.98c5.22-0.08,9.96,0.99,13.1,5.66c1.08,1.61,2.95,3.94,1.02,5.2c-2,1.31-5.2,1.51-7.39-0.51
			c-5.9-5.45-8.84-5.84-12.56-1.33c-3.81,4.61-2.82,13.83,1.85,17.08c3.15,2.19,7.16,1.34,9.65-1.88c0.86-1.12,0.75-3.18,2.65-3.28
			c2.11-0.11,4.82-1.12,6.17,0.56c1.24,1.55-0.27,3.75-1.38,5.45c-3.52,5.36-10.66,7.69-18.27,5.93c-6.05-1.4-10.58-6.79-11.44-13.6
			C635.33,182.8,642.1,174.94,653.38,174.98z"/>
		<path class="st9" d="M600.54,207.51c-3.85,0.82-5.38-1.06-6.47-4.46c-2.42-7.56-5.39-14.95-7.88-22.49
			c-0.52-1.56-3.29-4.34,0.67-5.03c2.8-0.49,6.44-1.59,7.68,3.05c1.15,4.3,2.66,8.5,4.08,12.72c0.39,1.17,0.2,2.89,2.05,2.98
			c1.86,0.09,1.89-1.59,2.28-2.77c1.42-4.23,2.76-8.49,4.13-12.74c0.97-3.01,5.32-4.74,7.94-3.19c1.36,0.81,0.98,1.82,0.57,2.99
			c-3.06,8.74-6.1,17.48-9.08,26.25C605.45,207.98,602.99,207.84,600.54,207.51z"/>
		<path class="st10" d="M614.23,268.39c0-2.33-0.09-4.65,0.02-6.97c0.14-2.79-0.14-5.03-3.84-4.74c-1.7,0.13-2.27-0.98-2.22-2.57
			c0.05-1.43,0.21-2.9,2-2.81c3.98,0.2,4.25-2.28,4-5.2c-0.27-3.08,0.29-4.83,4.18-4.94c4.39-0.12,4.54,2.19,4.32,5.27
			c-0.2,2.78,0.1,5.06,3.8,4.8c1.88-0.13,2.61,0.94,2.61,2.78c0,1.9-0.86,2.87-2.7,2.68c-3.37-0.35-3.83,1.56-3.73,4.27
			c0.13,3.48,0.1,6.98,0.03,10.46c-0.06,3.15,0.42,5.67,4.46,5.58c2.33-0.05,1.82,1.85,1.94,3.26c0.15,1.72-0.26,2.85-2.33,2.93
			c-7.98,0.3-13.22,0-12.61-10.33c0.09-1.49,0.01-2.99,0.01-4.48C614.2,268.39,614.22,268.39,614.23,268.39z"/>
		<path class="st9" d="M734.46,267.59c0-1.99-0.04-3.99,0.01-5.98c0.07-2.56,0.44-5.17-3.51-4.98c-1.37,0.06-1.87-1.07-1.87-2.43
			c0.01-1.44,0.17-2.86,1.94-2.87c3.4-0.02,3.59-2.12,3.43-4.69c-0.17-2.87-0.56-5.52,4.06-5.46c4.19,0.05,4.7,1.98,4.34,5.21
			c-0.35,3.19,0.53,5.25,4.28,4.87c2.06-0.21,3,0.68,2.98,2.87c-0.02,2.4-1.42,2.81-3.26,2.59c-3.56-0.42-4.19,1.53-4.04,4.5
			c0.15,2.98,0.14,5.98,0.01,8.97c-0.16,3.85,0.11,7.13,5.32,6.84c2.39-0.13,1.77,1.82,1.88,3.22c0.13,1.66-0.07,2.79-2.24,2.95
			c-9.1,0.66-13.98-0.45-13.33-10.62c0.1-1.65,0.01-3.32,0.01-4.98C734.47,267.59,734.46,267.59,734.46,267.59z"/>
		<path class="st11" d="M634.47,267.31c0-4.15-0.04-8.3,0.02-12.45c0.02-1.39-0.46-3.44,1.68-3.52c2.14-0.07,5.32-1.45,6.22,1.31
			c1.16,3.55,2.21,1.62,3.64,0.59c0.94-0.67,1.9-1.38,2.97-1.76c1.79-0.64,3.9-2.24,5.52-0.55c1.39,1.45,0.78,3.86,0.42,5.75
			c-0.46,2.46-2.69,1.17-4.14,1.37c-4.57,0.61-7.71,4.52-7.99,10.43c-0.17,3.48-0.29,7,0.03,10.45c0.35,3.73-1.35,4.2-4.57,4.38
			c-3.9,0.22-3.9-1.87-3.85-4.56c0.06-3.82,0.02-7.64,0.02-11.46C634.46,267.31,634.46,267.31,634.47,267.31z"/>
		<path class="st12" d="M569.16,179.67c2.56-1.63,4.49-3.3,6.73-4.17c1.87-0.73,4.56-1.25,5,2c0.33,2.42,0.72,4.82-3.23,5.24
			c-5.77,0.61-8.25,3.67-8.57,9.6c-0.2,3.64-0.23,7.31-0.01,10.94c0.2,3.2-0.85,4.45-4.18,4.41c-3.22-0.04-4.39-1.11-4.3-4.39
			c0.2-7.46,0-14.93,0.1-22.39c0.03-2.1-1.17-5.03,2.4-5.55C566.17,174.94,569.18,174.99,569.16,179.67z"/>
		<path class="st13" d="M629.75,191.99c0,3.99-0.13,7.99,0.04,11.97c0.15,3.32-1.59,3.78-4.35,3.76s-4.38-0.55-4.32-3.83
			c0.14-8.31,0.14-16.63-0.03-24.95c-0.07-3.43,1.79-3.66,4.41-3.71c2.75-0.05,4.45,0.45,4.28,3.79c-0.21,4.31-0.05,8.65-0.05,12.97
			C629.74,191.99,629.75,191.99,629.75,191.99z"/>
		<path class="st14" d="M754.9,246.71c1.4-2.76-2.39-7.6,4.11-7.87c4.24-0.17,5.83,0.94,5.74,5.49c-0.14,7.32-2.05,14.42-2.14,21.72
			c-0.02,1.73-0.74,3.47-2.79,3.46c-1.86-0.01-2.26-1.77-2.45-3.24C756.49,259.72,755.71,253.16,754.9,246.71z"/>
		<path class="st15" d="M760.11,283.01c-3.92,0.87-5.15-0.42-5.14-4.28c0.02-3.96,1.25-5.01,5.12-5c3.69,0.01,4.82,0.96,4.77,4.71
			C764.81,282.27,764.11,284.36,760.11,283.01z"/>
		<path class="st16" d="M625.95,169.89c-2.97,0.26-4.85,0.02-4.94-3.47c-0.1-3.56,1.76-3.64,4.35-3.56c2.37,0.08,4.64-0.4,4.51,3.37
			C629.75,169.44,628.57,170.54,625.95,169.89z"/>
		<path class="st0" d="M245.16,190.82c-30.66,0-61.32,0.01-91.98,0c-6.98,0-7.57-0.86-4.49-7.03c9.42-18.88,18.97-37.69,28.3-56.62
			c1.79-3.63,4-4.83,8.12-4.81c38.66,0.18,77.31,0.19,115.97-0.01c5.41-0.03,8.71,1.33,11.37,6.47c9.6,18.6,19.78,36.89,29.69,55.33
			c2.96,5.5,2.29,6.64-4.01,6.64C307.14,190.84,276.15,190.82,245.16,190.82z"/>
		<path class="st17" d="M246.98,222.03c12.98,0,25.97,0.13,38.95-0.08c3.78-0.06,4.96,1.09,4.75,4.82
			c-0.3,5.31-0.16,10.65-0.05,15.97c0.06,2.98-1.08,4.08-4.12,4.07c-26.3-0.09-52.6-0.11-78.9,0.01c-3.63,0.02-4.58-1.37-4.44-4.71
			c0.21-5.15,0.3-10.33-0.04-15.47c-0.26-3.94,1.33-4.72,4.89-4.67C221.01,222.14,234,222.04,246.98,222.03z"/>
		<path class="st18" d="M126.47,229.26c0.04-9.12,6.11-15.87,14.36-15.95c7.71-0.08,14.38,7.42,14.35,16.14s-6.61,15.91-14.54,15.86
			C132.49,245.27,126.43,238.4,126.47,229.26z"/>
		<path class="st18" d="M334.84,228.9c0.17-9.1,6.39-15.71,14.65-15.58c7.62,0.12,14.28,7.85,14.15,16.44
			c-0.12,8.41-7.23,15.78-15.02,15.56C340.6,245.09,334.67,238.03,334.84,228.9z"/>
		<path class="st19" d="M244.54,95.93c6.82-0.01,13.65,0.18,20.46-0.08c3.67-0.14,3.95,1.66,4.02,4.54
			c0.07,3.05-1.01,4.08-4.04,4.05c-13.47-0.12-26.95-0.11-40.42-0.02c-2.97,0.02-4.19-0.96-4.14-4.04c0.05-2.97,0.64-4.64,4.17-4.52
			C231.23,96.1,237.89,95.93,244.54,95.93z"/>
		<path class="st20" d="M326.87,305.38c-0.01-9.82,0.12-19.64-0.07-29.45c-0.07-3.46,0.99-4.68,4.52-4.64
			c13.81,0.16,27.63,0.13,41.44,0.01c3.02-0.03,4,0.95,4.07,4.01c0.26,12.3,0.36,12.29-11.78,12.29c-5.16,0-10.33,0.21-15.48-0.07
			c-3.73-0.2-4.02,1.76-3.88,4.6c0.13,2.62-0.61,5.36,3.78,5.18c6.98-0.28,13.98,0.03,20.97-0.13c3.03-0.07,4.09,1,4.05,4.05
			c-0.15,11.05,0.85,9.45-9.14,9.49c-5.16,0.02-10.33,0.18-15.48-0.03c-3.37-0.14-4.58,1.2-4.15,4.38c0.02,0.16,0.01,0.33,0.01,0.5
			c-0.08,7.61-0.08,7.6,7.37,7.59c6.66-0.01,13.32,0.12,19.97-0.06c3.33-0.09,4.69,0.8,4.71,4.45c0.06,11.66,0.21,11.65-11.38,11.63
			c-11.32-0.02-22.64-0.2-33.95,0.09c-4.28,0.11-5.83-0.93-5.66-5.47C327.12,324.36,326.88,314.86,326.87,305.38z"/>
		<path class="st21" d="M117.84,305.03c0-9.49,0.14-18.99-0.07-28.48c-0.08-3.78,0.88-5.35,5-5.28c13.49,0.22,26.98,0.17,40.47,0.03
			c3.15-0.03,4.38,0.79,4.46,4.16c0.3,12.15,0.42,12.15-11.84,12.15c-5.16,0-10.34,0.17-15.49-0.07c-3.74-0.18-3.98,1.88-3.91,4.69
			c0.07,2.77-0.22,5.28,3.99,5.11c6.98-0.28,13.99,0.04,20.98-0.14c3.1-0.08,4.04,1.07,4,4.06c-0.15,11.31,0.87,9.37-9.11,9.48
			c-5.16,0.05-10.33,0.15-15.49-0.04c-3.23-0.12-4.69,1-4.36,4.3c0.13,1.32,0.14,2.67,0.01,3.99c-0.33,3.38,1.32,4.32,4.45,4.26
			c7.66-0.14,15.33,0.07,22.98-0.11c3.36-0.08,4.72,0.88,4.71,4.49c-0.02,11.6,0.11,11.6-11.55,11.59
			c-11.66,0-23.32-0.09-34.98,0.06c-3.24,0.04-4.39-0.96-4.33-4.26C117.95,325.01,117.84,315.02,117.84,305.03z"/>
		<path class="st21" d="M300.29,313.36c0,7.16-0.18,14.32,0.08,21.47c0.13,3.58-1.16,4.45-4.57,4.46
			c-14.11,0.08-14.11,0.18-14.11-13.9c0-10.99-0.17-21.98,0.1-32.96c0.1-4.03-1.26-5.47-5.12-4.86c-0.65,0.1-1.33,0.03-2,0.01
			c-14.35-0.39-11.43,2.9-11.89-12.66c-0.08-2.55,0.88-3.6,3.47-3.59c16.48,0.05,32.96,0.05,49.45,0c2.55-0.01,3.39,1,3.53,3.55
			c0.72,12.7,0.79,12.67-11.84,12.72c-8.16,0.03-7.04-0.81-7.09,7.28C300.25,301.04,300.29,307.2,300.29,313.36z"/>
		<path class="st21" d="M178.66,305.18c0-9.65,0.13-19.31-0.07-28.95c-0.07-3.65,1.06-4.94,4.82-4.97
			c13.86-0.12,13.86-0.23,13.85,13.74c0,10.65,0.17,21.3-0.09,31.95c-0.1,4.04,0.9,5.64,5.21,5.41c6.47-0.35,12.98,0.04,19.47-0.14
			c3.15-0.09,4.35,0.81,4.42,4.18c0.25,12.8,0.38,12.81-12.23,12.82c-10.15,0.01-20.31-0.23-30.45,0.09
			c-4.17,0.13-5.06-1.44-4.98-5.17C178.79,324.49,178.66,314.83,178.66,305.18z"/>
		<path class="st21" d="M254.11,304.96c0,9.99-0.1,19.99,0.06,29.98c0.05,3.23-0.95,4.54-4.28,4.31c-3.32-0.23-6.68-0.27-9.99,0.02
			c-3.71,0.33-4.47-1.41-4.46-4.64c0.07-19.65,0.07-39.31-0.04-58.96c-0.02-3.24,1.04-4.54,4.32-4.36c3.49,0.19,7,0.16,10.49-0.01
			c3.13-0.15,4,1.26,3.96,4.18C254.05,285.31,254.12,295.13,254.11,304.96C254.12,304.96,254.11,304.96,254.11,304.96z"/>
		<path class="st22" d="M531.44,278.52c-2.28-0.15-4.94-0.58-5.13-4.19c-0.19-3.59,4.54-6.23,10.91-6.33
			c2.44-0.04,2.09,1.61,2.13,3.04C539.5,275.55,536.53,278.53,531.44,278.52z"/>
		<path class="st23" d="M538.25,188.3c-0.66-0.01-1.35,0.11-1.99-0.03c-1.77-0.38-4.58,1.18-5.06-1.54
			c-0.45-2.48,1.72-4.15,3.87-5.26c1.84-0.96,3.86-1.2,5.79-0.44c2.61,1.04,4.98,2.96,4.48,5.84c-0.45,2.59-3.33,1.02-5.11,1.41
			C539.61,188.42,538.92,188.31,538.25,188.3z"/>
		<path class="st24" d="M689.14,188.27c-0.82,0-1.66,0.1-2.46-0.02c-1.65-0.24-4.05,0.99-4.66-1.43c-0.55-2.16,1.25-3.59,2.91-4.74
			c2.02-1.38,4.27-1.75,6.59-1.03c2.73,0.84,5.06,2.72,4.81,5.54c-0.29,3.24-3.42,1.15-5.22,1.68c-0.61,0.18-1.31,0.03-1.97,0.03
			C689.14,188.3,689.14,188.29,689.14,188.27z"/>
		<path class="st25" d="M786.86,192.05c-0.15,6.39-3.33,10.08-8.58,9.93c-4.84-0.14-8.35-4.64-8.2-10.53
			c0.16-6.44,3.76-10.77,8.78-10.55C784.01,181.13,787.01,185.32,786.86,192.05z"/>
	</g>
</g>
</svg>
